<?xml version="1.0" encoding="iso-8859-1"?>
<!-- Uploaded to: SVG Repo, www.svgrepo.com, Generator: SVG Repo Mixer Tools -->
<svg fill="#000000" height="800px" width="800px" version="1.1" id="Capa_1" xmlns="http://www.w3.org/2000/svg" xmlns:xlink="http://www.w3.org/1999/xlink" 
	 viewBox="0 0 463.403 463.403" xml:space="preserve">
<g>
	<path d="M295.504,160.004c-0.008,0-0.016,0-0.023,0l-128,0.395c-4.142,0.013-7.49,3.381-7.477,7.523l0.395,128
		c0.013,4.134,3.368,7.477,7.5,7.477c0.008,0,0.016,0,0.023,0l128-0.395c4.142-0.013,7.49-3.381,7.477-7.523l-0.395-128
		C302.991,163.347,299.636,160.004,295.504,160.004z M288.066,187.726c-1.838-2.346-3.815-4.604-5.963-6.738
		c-2.148-2.134-4.418-4.098-6.775-5.921l12.698-0.039L288.066,187.726z M231.876,288.201c-0.061,0-0.119,0-0.18,0
		c-15.023-0.001-29.161-5.83-39.822-16.425c-10.704-10.639-16.625-24.809-16.671-39.901c-0.047-15.091,5.787-29.297,16.425-40.002
		c10.639-10.704,24.809-16.625,39.901-16.671c0.061,0,0.119,0,0.18,0c15.023,0,29.161,5.83,39.822,16.425
		c10.704,10.639,16.625,24.809,16.671,39.9v0c0.047,15.091-5.787,29.297-16.425,40.002
		C261.138,282.234,246.967,288.155,231.876,288.201z M187.726,175.337c-2.346,1.838-4.604,3.815-6.738,5.963
		c-2.135,2.148-4.098,4.418-5.921,6.776l-0.039-12.699L187.726,175.337z M175.337,275.677c1.838,2.346,3.815,4.604,5.963,6.738
		c2.148,2.134,4.418,4.098,6.775,5.921l-12.698,0.039L175.337,275.677z M275.677,288.066c2.346-1.838,4.604-3.815,6.738-5.963
		c2.135-2.148,4.098-4.418,5.921-6.776l0.039,12.699L275.677,288.066z"/>
	<path d="M462.998,165.234c-0.022-7.125-4.869-13.294-11.787-15.001l-90.009-22.208c-2.193-0.54-4.512-0.064-6.315,1.296
		l-20.821,15.717c-1.084-3.841-3.136-7.361-6.045-10.251c-2.909-2.892-6.457-4.896-10.308-5.955l15.608-20.945
		c1.35-1.811,1.811-4.134,1.257-6.323l-22.762-89.871C310.069,4.802,303.896,0,296.792,0c-0.017,0-0.034,0-0.05,0L165.234,0.406
		c-7.125,0.022-13.294,4.869-15.001,11.787l-22.208,90.009c-0.541,2.192-0.065,4.512,1.296,6.315l15.717,20.821
		c-3.841,1.084-7.361,3.136-10.251,6.045c-2.89,2.908-4.921,6.44-5.982,10.288l-20.918-15.588c-1.811-1.35-4.134-1.811-6.323-1.257
		l-89.871,22.762C4.786,153.339-0.023,159.538,0,166.662L0.406,298.17c0.022,7.125,4.869,13.294,11.787,15.001l90.009,22.208
		c0.594,0.146,1.196,0.218,1.796,0.218c1.615,0,3.205-0.522,4.519-1.514l20.828-15.722c2.233,7.86,8.457,14.047,16.331,16.231
		l-15.592,20.924c-1.35,1.811-1.811,4.134-1.257,6.323l22.762,89.871c1.746,6.892,7.919,11.694,15.023,11.694
		c0.017,0,0.034,0,0.05,0l131.507-0.406c7.125-0.022,13.294-4.869,15.001-11.787l22.208-90.009c0.541-2.192,0.065-4.512-1.296-6.315
		l-15.722-20.828c7.859-2.233,14.046-8.458,16.231-16.331l20.925,15.593c1.308,0.975,2.883,1.486,4.482,1.486
		c0.615,0,1.233-0.076,1.841-0.229l89.871-22.762c6.908-1.75,11.717-7.949,11.694-15.073L462.998,165.234z M164.796,15.786
		c0.055-0.223,0.254-0.38,0.483-0.38L296.788,15c0.196,0.009,0.429,0.154,0.485,0.377l21.886,86.41l-19.527,26.204l-20.75,0.064
		l-0.051-16.5c-0.013-4.134-3.368-7.477-7.5-7.477c-0.008,0-0.016,0-0.024,0c-4.142,0.013-7.489,3.381-7.477,7.523l0.051,16.5
		l-65,0.201l-0.051-16.5c-0.013-4.134-3.368-7.477-7.5-7.477c-0.008,0-0.016,0-0.024,0c-4.142,0.013-7.489,3.381-7.477,7.523
		l0.051,16.5l-20.75,0.064l-19.689-26.084L164.796,15.786z M102.329,319.96l-86.543-21.353c-0.223-0.055-0.38-0.254-0.38-0.483
		L15,166.615c-0.001-0.229,0.154-0.429,0.377-0.485l86.41-21.886l26.204,19.527l0.064,20.75l-16.5,0.051
		c-4.142,0.013-7.489,3.381-7.477,7.523c0.013,4.134,3.368,7.477,7.5,7.477c0.008,0,0.016,0,0.024,0l16.5-0.051l0.201,65
		l-16.5,0.051c-4.142,0.013-7.489,3.381-7.477,7.523c0.013,4.134,3.368,7.477,7.5,7.477c0.008,0,0.016,0,0.024,0l16.499-0.051
		l0.064,20.75L102.329,319.96z M298.607,447.617c-0.055,0.223-0.254,0.38-0.483,0.38l-131.508,0.406c0,0-0.001,0-0.001,0
		c-0.229,0-0.428-0.155-0.484-0.377l-21.886-86.41l19.527-26.204l20.75-0.064l0.051,16.5c0.013,4.134,3.368,7.477,7.5,7.477
		c0.008,0,0.016,0,0.024,0c4.142-0.013,7.489-3.381,7.477-7.523l-0.051-16.5l65-0.201l0.051,16.5c0.013,4.134,3.368,7.477,7.5,7.477
		c0.008,0,0.016,0,0.024,0c4.142-0.013,7.489-3.381,7.477-7.523l-0.051-16.499l20.75-0.064l19.689,26.083L298.607,447.617z
		 M311.975,319.955l-160,0.494c-0.009,0-0.017,0-0.026,0c-4.675,0-8.486-3.796-8.5-8.474l-0.494-160
		c-0.014-4.687,3.787-8.512,8.474-8.526l160-0.494c0.009,0,0.017,0,0.026,0c4.675,0,8.486,3.796,8.5,8.474l0.494,160
		C320.462,316.115,316.661,319.94,311.975,319.955z M448.026,297.274l-86.41,21.886l-26.204-19.527l-0.064-20.75l16.5-0.051
		c4.142-0.013,7.489-3.381,7.477-7.523c-0.013-4.134-3.368-7.477-7.5-7.477c-0.008,0-0.016,0-0.024,0l-16.5,0.051l-0.201-65
		l16.5-0.051c4.142-0.013,7.489-3.381,7.477-7.523c-0.013-4.134-3.368-7.477-7.5-7.477c-0.008,0-0.016,0-0.024,0l-16.5,0.051
		l-0.064-20.75l26.084-19.689l86.543,21.353c0.223,0.055,0.38,0.254,0.38,0.483l0.406,131.508
		C448.404,297.018,448.249,297.217,448.026,297.274z"/>
</g>
</svg>